<svg xmlns="http://www.w3.org/2000/svg" width="1400" height="240" viewBox="0 0 1400 240">
  <defs>
    <linearGradient id="fade" x1="0" y1="0" x2="1" y2="0">
      <stop offset="0%" stop-color="white" stop-opacity="0.9"/>
      <stop offset="40%" stop-color="white" stop-opacity="0.45"/>
      <stop offset="50%" stop-color="white" stop-opacity="0"/>
      <stop offset="60%" stop-color="white" stop-opacity="0.45"/>
      <stop offset="100%" stop-color="white" stop-opacity="0.9"/>
    </linearGradient>

    <filter id="glow" x="-20%" y="-20%" width="140%" height="140%">
      <feGaussianBlur stdDeviation="1.2" result="blur"/>
      <feMerge>
        <feMergeNode in="blur"/>
        <feMergeNode in="SourceGraphic"/>
      </feMerge>
    </filter>

    <circle id="node" r="4" fill="#7bbcff"/>
  </defs>

  <!-- function to draw helix rails -->
  <g stroke="#9fd0ff" stroke-width="2" fill="none" filter="url(#glow)">
    <!-- TOP -->
    <path id="t1" d="M-200,60 C0,10 350,110 700,60 S1050,10 1400,60 S1750,110 2100,60"/>
    <path id="t2" d="M-200,60 C0,110 350,10 700,60 S1050,110 1400,60 S1750,10 2100,60"/>

    <!-- MIDDLE -->
    <path id="m1" d="M-200,120 C0,40 350,200 700,120 S1050,40 1400,120 S1750,200 2100,120"/>
    <path id="m2" d="M-200,120 C0,200 350,40 700,120 S1050,200 1400,120 S1750,40 2100,120"/>

    <!-- BOTTOM -->
    <path id="b1" d="M-200,180 C0,110 350,230 700,180 S1050,110 1400,180 S1750,230 2100,180"/>
    <path id="b2" d="M-200,180 C0,230 350,110 700,180 S1050,230 1400,180 S1750,110 2100,180"/>
  </g>

  <!-- DNA rungs -->
  <g stroke="#7bbcff" stroke-width="1">
    <script><![CDATA[
      const g = document.currentScript.parentNode;
      for (let x=-200; x<2100; x+=60){
        const y1 = 60 + Math.sin(x/80)*25;
        const y2 = 60 - Math.sin(x/80)*25;
        const l1 = document.createElementNS("http://www.w3.org/2000/svg","line");
        l1.setAttribute("x1",x); l1.setAttribute("y1",y1);
        l1.setAttribute("x2",x); l1.setAttribute("y2",y2);
        g.appendChild(l1);

        const y3 = 120 + Math.sin(x/80)*25;
        const y4 = 120 - Math.sin(x/80)*25;
        const l2 = document.createElementNS("http://www.w3.org/2000/svg","line");
        l2.setAttribute("x1",x); l2.setAttribute("y1",y3);
        l2.setAttribute("x2",x); l2.setAttribute("y2",y4);
        g.appendChild(l2);

        const y5 = 180 + Math.sin(x/80)*25;
        const y6 = 180 - Math.sin(x/80)*25;
        const l3 = document.createElementNS("http://www.w3.org/2000/svg","line");
        l3.setAttribute("x1",x); l3.setAttribute("y1",y5);
        l3.setAttribute("x2",x); l3.setAttribute("y2",y6);
        g.appendChild(l3);
      }
    ]]></script>
  </g>

  <!-- animated nodes -->
  <use href="#node">
    <animateMotion dur="7s" repeatCount="indefinite"><mpath href="#t1"/></animateMotion>
  </use>
  <use href="#node">
    <animateMotion dur="8s" repeatCount="indefinite"><mpath href="#m1"/></animateMotion>
  </use>
  <use href="#node">
    <animateMotion dur="9s" repeatCount="indefinite"><mpath href="#b2"/></animateMotion>
  </use>

  <!-- center fade -->
  <rect width="1400" height="240" fill="url(#fade)" opacity="0.35"/>
</svg>
